#!OML:ASF H:\LiuWeirdWalks\Patient Classification 1\Patient 1\Session 1\male.ASF
:FULLY-SPECIFIED
:DEGREES
803
root 2.27153 18.2141 7.61464 0.872992 5.36356 -0.419663
lowerback 4.42038 0.347981 -2.5948
upperback 0.304194 0.392322 2.45661
thorax -2.20136 0.232596 3.96966
lowerneck -14.9897 0.392739 3.35783
upperneck 22.6865 1.10109 -5.60636
head 9.70039 0.170028 -2.38077
rclavicle 6.43565e-015 -2.94201e-014
rhumerus -36.4494 -9.7556 -76.9066
rradius 32.5984
rwrist -9.0552
rhand -17.5413 -2.75908
rfingers 7.12502
rthumb 8.71297 -32.5593
lclavicle 6.43565e-015 -2.94201e-014
lhumerus -41.4238 -0.460239 86.4015
lradius 35.8923
lwrist 12.7436
lhand -13.4267 -1.3206
lfingers 7.12502
lthumb 12.6818 28.2743
rfemur -18.0207 -12.1295 14.7793
rtibia 70.2298
rfoot 7.91714 -11.9211
rtoes 5.81612
lfemur -11.3284 0.681265 -23.6816
ltibia 22.5156
lfoot -8.11767 5.0774
ltoes -9.46784
804
root 2.27839 18.2094 7.67618 0.839195 5.50266 -0.307674
lowerback 4.50362 0.334316 -2.7645
upperback 0.27676 0.363712 2.43302
thorax -2.27477 0.221692 4.04324
lowerneck -14.9886 0.394872 3.36275
upperneck 22.7129 1.10411 -5.60594
head 9.70966 0.171905 -2.38156
rclavicle 4.99446e-015 1.55052e-014
rhumerus -36.4495 -9.57142 -76.9991
rradius 32.8246
rwrist -9.14364
rhand -17.5829 -2.81962
rfingers 7.12502
rthumb 8.67288 -32.6215
lclavicle 4.99446e-015 1.55052e-014
lhumerus -41.424 -0.467165 86.4076
lradius 36.1233
lwrist 12.8809
lhand -13.4522 -1.32441
lfingers 7.12502
lthumb 12.6573 28.2721
rfemur -18.8694 -12.2752 14.7284
rtibia 70.4724
rfoot 6.77602 -12.3338
rtoes 5.30188
lfemur -11.0948 0.613573 -23.8341
ltibia 22.579
lfoot -8.24326 5.13569
ltoes -9.46976
805
root 2.28491 18.204 7.73746 0.801286 5.64176 -0.189807
lowerback 4.59014 0.31824 -2.93607
upperback 0.25224 0.331154 2.4041
thorax -2.34652 0.208873 4.11271
lowerneck -14.9829 0.402868 3.39696
upperneck 22.7029 1.11263 -5.63066
head 9.70572 0.176215 -2.39474
rclavicle -1.09332e-014 -1.66979e-014
rhumerus -36.4572 -9.38171 -77.1005
rradius 33.0677
rwrist -9.24609
rhand -17.6227 -2.91584
rfingers 7.12502
rthumb 8.63447 -32.7193
lclavicle -1.09332e-014 -1.66979e-014
lhumerus -41.4227 -0.476889 86.4119
lradius 36.3468
lwrist 13.0007
lhand -13.4691 -1.30894
lfingers 7.12502
lthumb 12.641 28.2885
rfemur -19.6983 -12.4036 14.6732
rtibia 70.6378
rfoot 5.64127 -12.7216
rtoes 4.76524
lfemur -10.8578 0.547994 -23.9932
ltibia 22.6482
lfoot -8.37864 5.20522
ltoes -9.54781
806
root 2.29084 18.1977 7.79812 0.771039 5.77493 -0.0430085
lowerback 4.66538 0.305857 -3.13492
upperback 0.239916 0.301614 2.36559
thorax -2.3996 0.197351 4.18756
lowerneck -15.0111 0.411037 3.42822
upperneck 22.693 1.12049 -5.65214
head 9.70823 0.179853 -2.40659
rclavicle 1.09332e-015 2.78299e-015
rhumerus -36.444 -9.2021 -77.2036
rradius 33.3066
rwrist -9.34676
rhand -17.6626 -2.95674
rfingers 7.12502
rthumb 8.59591 -32.7617
lclavicle 1.09332e-015 2.78299e-015
lhumerus -41.4045 -0.499107 86.4246
lradius 36.5738
lwrist 13.1182
lhand -13.5059 -1.30206
lfingers 7.12502
lthumb 12.6055 28.2976
rfemur -20.5244 -12.5107 14.5908
rtibia 70.731
rfoot 4.56806 -13.078
rtoes 4.24684
lfemur -10.6317 0.478349 -24.1837
ltibia 22.7272
lfoot -8.52344 5.29723
ltoes -9.75837
807
root 2.29577 18.1909 7.85868 0.734921 5.90332 0.0988189
lowerback 4.73034 0.298706 -3.32993
upperback 0.245443 0.27909 2.3271
thorax -2.429 0.188568 4.25979
lowerneck -15.0437 0.408754 3.42407
upperneck 22.6737 1.11392 -5.64007
head 9.70718 0.177516 -2.40229
rclavicle -2.12203e-014 -2.70347e-014
rhumerus -36.4096 -9.06278 -77.2915
rradius 33.5127
rwrist -9.40494
rhand -17.6732 -2.92518
rfingers 7.12502
rthumb 8.58574 -32.7306
lclavicle -2.12203e-014 -2.70347e-014
lhumerus -41.3624 -0.550637 86.4502
lradius 36.7964
lwrist 13.2361
lhand -13.5433 -1.31158
lfingers 7.12502
lthumb 12.5694 28.2903
rfemur -21.3307 -12.589 14.5207
rtibia 70.7483
rfoot 3.56779 -13.4073
rtoes 3.75279
lfemur -10.4038 0.412023 -24.3662
ltibia 22.8149
lfoot -8.67817 5.40334
ltoes -9.99734
808
root 2.30015 18.1835 7.91902 0.704787 6.02947 0.243024
lowerback 4.78938 0.297409 -3.52384
upperback 0.25136 0.264319 2.28946
thorax -2.45535 0.183621 4.33179
lowerneck -15.0739 0.386271 3.35918
upperneck 22.6577 1.08289 -5.57977
head 9.70511 0.164075 -2.37386
rclavicle 1.66482e-014 9.93923e-015
rhumerus -36.3648 -8.93935 -77.3591
rradius 33.6803
rwrist -9.45014
rhand -17.6703 -2.82235
rfingers 7.12502
rthumb 8.58849 -32.6277
lclavicle 1.66482e-014 9.93923e-015
lhumerus -41.3199 -0.621939 86.4943
lradius 37.0088
lwrist 13.3537
lhand -13.5977 -1.35597
lfingers 7.12502
lthumb 12.517 28.2491
rfemur -22.1262 -12.6463 14.4516
rtibia 70.6898
rfoot 2.67216 -13.6941
rtoes 3.31191
lfemur -10.1876 0.341813 -24.5515
ltibia 22.9128
lfoot -8.83945 5.52732
ltoes -10.3087
809
root 2.30398 18.1756 7.97924 0.678251 6.15191 0.39399
lowerback 4.84105 0.298879 -3.72102
upperback 0.257602 0.252921 2.24851
thorax -2.47751 0.180309 4.40197
lowerneck -15.0812 0.357916 3.27977
upperneck 22.6217 1.04373 -5.50579
head 9.69114 0.147557 -2.33868
rclavicle 1.29707e-014 1.98785e-015
rhumerus -36.3279 -8.83535 -77.4135
rradius 33.834
rwrist -9.49137
rhand -17.658 -2.69289
rfingers 7.12502
rthumb 8.60043 -32.4977
lclavicle 1.29707e-014 1.98785e-015
lhumerus -41.2746 -0.712508 86.546
lradius 37.2036
lwrist 13.4528
lhand -13.6506 -1.41261
lfingers 7.12502
lthumb 12.466 28.1956
rfemur -22.9094 -12.681 14.3774
rtibia 70.5551
rfoot 1.88936 -13.9315
rtoes 2.87615
lfemur -9.97903 0.255401 -24.7442
ltibia 23.0213
lfoot -9.00507 5.67988
ltoes -10.5149
810
root 2.30731 18.1679 8.03986 0.643987 6.26662 0.518028
lowerback 4.89504 0.305578 -3.8872
upperback 0.264836 0.25009 2.21433
thorax -2.50068 0.181002 4.46104
lowerneck -15.0855 0.325191 3.19655
upperneck 22.5836 0.999895 -5.4335
head 9.67566 0.128414 -2.304
rclavicle -3.67752e-015 -2.90226e-014
rhumerus -36.3008 -8.75821 -77.4534
rradius 33.9855
rwrist -9.52728
rhand -17.6571 -2.61567
rfingers 7.12502
rthumb 8.60121 -32.4205
lclavicle -3.67752e-015 -2.90226e-014
lhumerus -41.2259 -0.820833 86.6095
lradius 37.3776
lwrist 13.5362
lhand -13.7031 -1.45326
lfingers 7.12502
lthumb 12.4154 28.158
rfemur -23.6629 -12.6855 14.3345
rtibia 70.3399
rfoot 1.20475 -14.125
rtoes 2.44728
lfemur -9.76763 0.15114 -24.9068
ltibia 23.1401
lfoot -9.17502 5.8637
ltoes -10.5891
811
root 2.31054 18.1601 8.1003 0.608722 6.3812 0.632041
lowerback 4.94879 0.308741 -4.03877
upperback 0.269618 0.243144 2.18006
thorax -2.52572 0.179593 4.51199
lowerneck -15.0742 0.303966 3.16205
upperneck 22.5224 0.968625 -5.39979
head 9.65011 0.115211 -2.28903
rclavicle 5.86415e-015 -9.93923e-015
rhumerus -36.2814 -8.68049 -77.497
rradius 34.1413
rwrist -9.57828
rhand -17.6733 -2.61924
rfingers 7.12502
rthumb 8.58567 -32.4247
lclavicle 5.86415e-015 -9.93923e-015
lhumerus -41.1733 -0.94009 86.6724
lradius 37.5247
lwrist 13.6252
lhand -13.7516 -1.49751
lfingers 7.12502
lthumb 12.3686 28.1166
rfemur -24.3951 -12.6736 14.3005
rtibia 70.0491
rfoot 0.597555 -14.2814
rtoes 2.02122
lfemur -9.55909 0.0302206 -25.0595
ltibia 23.2683
lfoot -9.34967 6.06888
ltoes -10.4725
